<?xml version="1.0" encoding="utf-8"?>
<!-- Generator: Adobe Illustrator 27.0.0, SVG Export Plug-In . SVG Version: 6.00 Build 0)  -->
<svg version="1.1" id="Layer_1" xmlns="http://www.w3.org/2000/svg" xmlns:xlink="http://www.w3.org/1999/xlink" x="0px" y="0px"
	 viewBox="0 0 1399.5 880.2" style="enable-background:new 0 0 1399.5 880.2;" xml:space="preserve">
<style type="text/css">
	.st0{fill:#DA291C;}
	.st1{enable-background:new    ;}
</style>
<g>
	<g>
		<polygon class="st0" points="948.8,258.4 998.7,258.4 1006.8,278.4 939.4,278.4 928.6,301.3 898.9,301.3 972.7,150.1 993.3,150.1 
			1067,301.3 1037.3,301.3 982.9,184.6 		"/>
		<polygon class="st0" points="385.5,259.5 435.5,259.5 443.5,279.5 376.2,279.5 365.4,302.4 335.7,302.4 409.4,151.2 430,151.2 
			503.8,302.4 474.1,302.4 419.7,185.7 		"/>
		<polygon class="st0" points="666.1,259.5 716,259.5 724.1,279.5 656.7,279.5 646,302.4 616.2,302.4 690,151.2 710.6,151.2 
			784.4,302.4 754.6,302.4 700.3,185.7 		"/>
		<polygon class="st0" points="476,150.7 549.8,302 551,302 569.1,302 570.4,302 644.1,150.7 614.4,150.7 560.1,269.7 505.7,150.7 
					"/>
		<polygon class="st0" points="825.6,358.7 927.4,150.7 897.7,150.7 841.1,271.9 789,150.7 759.3,150.7 826.3,301.9 797.1,358.7 		
			"/>
	</g>
	<g class="st1">
		<path d="M168.1,380.6h99.6v9.6h-89.2v55h80.2v9.6h-80.2V511h90.2v9.6H168.1V380.6z"/>
		<path d="M338.3,461.8l34.6-43.2h11.8l-40.2,49.8l41.8,52.2h-12.2l-36-45.4l-36,45.4h-11.8l41.6-52l-40-50h12.2L338.3,461.8z"/>
		<path d="M413.9,418.6h9.8v22.8c8.6-13.4,21.8-25.2,42-25.2c24.6,0,49.6,19.8,49.6,53v0.4c0,33-25,53.4-49.6,53.4
			c-20.4,0-33.4-11.6-42-24.4v54h-9.8V418.6z M504.7,470v-0.4c0-26.8-18.4-44-40-44c-21.4,0-41.6,17.8-41.6,43.8v0.4
			c0,26.2,20.2,43.8,41.6,43.8C487.1,513.6,504.7,497.2,504.7,470z"/>
		<path d="M538.9,469.8v-0.4c0-29.4,20.8-53.2,48.4-53.2c28.6,0,46.8,23.2,46.8,53.4c0,1.8,0,2.4-0.2,4h-84.6
			c1.6,25.4,20.2,40.2,40,40.2c16,0,26.4-7,35-16l6.8,6C620.7,515,608.3,523,588.9,523C562.1,523,538.9,501.8,538.9,469.8z
			 M623.5,464.8c-1.6-20.6-13.2-39.6-36.6-39.6c-20.2,0-36,17-37.6,39.6H623.5z"/>
		<path d="M662.7,418.6h9.8v29c8.2-18.4,24.8-31.2,45.2-30.6v10.8h-1c-23.4,0-44.2,18-44.2,51v41.8h-9.8V418.6z"/>
		<path d="M742.9,378.6h12.2V392h-12.2V378.6z M744.1,418.6h9.8v102h-9.8V418.6z"/>
		<path d="M785.5,469.8v-0.4c0-29.4,20.8-53.2,48.4-53.2c28.6,0,46.8,23.2,46.8,53.4c0,1.8,0,2.4-0.2,4h-84.6
			c1.6,25.4,20.2,40.2,40,40.2c16,0,26.4-7,35-16l6.8,6C867.3,515,854.9,523,835.5,523C808.7,523,785.5,501.8,785.5,469.8z
			 M870.1,464.8c-1.6-20.6-13.2-39.6-36.6-39.6c-20.2,0-36,17-37.6,39.6H870.1z"/>
		<path d="M909.3,418.6h9.8v19c7-12,18.2-21.4,36.8-21.4c25.8,0,40.8,17.4,40.8,42v62.4h-9.8V460c0-21-11.6-34.8-32.4-34.8
			c-20,0-35.4,15-35.4,36.4v59h-9.8V418.6z"/>
		<path d="M1024.9,470v-0.4c0-28.6,22.6-53.4,52-53.4c19.2,0,31.2,8.6,40.8,18.8l-7,7.2c-8.8-9-18.8-16.8-34-16.8
			c-23.2,0-41.2,19.2-41.2,43.8v0.4c0,24.8,18.8,44.2,42,44.2c14.4,0,25.6-7.4,34.2-17l6.8,6c-10.4,11.8-23,20.2-41.6,20.2
			C1047.5,523,1024.9,498.6,1024.9,470z"/>
		<path d="M1136.1,469.8v-0.4c0-29.4,20.8-53.2,48.4-53.2c28.6,0,46.8,23.2,46.8,53.4c0,1.8,0,2.4-0.2,4h-84.6
			c1.6,25.4,20.2,40.2,40,40.2c16,0,26.4-7,35-16l6.8,6c-10.4,11.2-22.8,19.2-42.2,19.2C1159.3,523,1136.1,501.8,1136.1,469.8z
			 M1220.7,464.8c-1.6-20.6-13.2-39.6-36.6-39.6c-20.2,0-36,17-37.6,39.6H1220.7z"/>
	</g>
	<g>
		<g class="st1">
			<path d="M279.5,589h50.8c30.8,0,52,15.8,52,42.8v0.4c0,29.6-25.2,44.6-54.6,44.6h-37.8V729h-10.4V589z M328.3,667.2
				c26,0,43.6-13.4,43.6-34.4v-0.4c0-22.2-17.4-33.8-42.4-33.8h-39.6v68.6H328.3z"/>
			<path d="M412.3,583h9.8v146h-9.8V583z"/>
			<path d="M452.3,699.4V699c0-21.4,18.2-33.2,44.6-33.2c14.4,0,24,1.8,33.8,4.4v-4.4c0-20.8-12.6-31.2-33.6-31.2
				c-12.6,0-22.6,3.4-32,8.2l-3.6-8.6c11.2-5.4,22-8.8,36.2-8.8c14,0,24.8,3.8,32.2,11.2c7,7,10.4,16.6,10.4,28.8V729h-9.6v-17
				c-7,9.6-19.6,19.4-39,19.4C472.7,731.4,452.3,720.8,452.3,699.4z M530.9,690.8v-11.6c-8.6-2.2-20-4.6-34.6-4.6
				c-21.6,0-33.6,9.4-33.6,23.8v0.4c0,14.8,14,23.4,29.6,23.4C513.1,722.2,530.9,709.4,530.9,690.8z"/>
			<path d="M579.9,702.8V636h-14.8v-9h14.8v-32.6h9.8V627h35.8v9h-35.8v65.8c0,14.6,8.4,19.8,20.4,19.8c5,0,9.2-1,15-3.6v9.2
				c-5.4,2.4-10.2,3.6-16.6,3.6C592.5,730.8,579.9,722.2,579.9,702.8z"/>
			<path d="M660.5,636h-14.8v-9h14.8v-10c0-11.8,3-20.6,9-26.6c5.4-5.4,12.4-8,21.4-8c6.2,0,10.6,0.8,15.2,2.4v9.2
				c-5.8-1.8-9.8-2.6-15.2-2.6c-13.8,0-20.6,8.6-20.6,25.8v9.8h35.6v9h-35.6v93h-9.8V636z"/>
			<path d="M717.9,678.4V678c0-28.6,22.2-53.4,52.6-53.4c30.2,0,52.2,24.4,52.2,53v0.4c0,28.6-22.2,53.4-52.6,53.4
				C739.9,731.4,717.9,707,717.9,678.4z M812.1,678.4V678c0-24.8-18.4-44.2-42-44.2c-24.2,0-41.6,19.8-41.6,43.8v0.4
				c0,24.8,18.4,44.2,42,44.2C794.7,722.2,812.1,702.4,812.1,678.4z"/>
			<path d="M852.9,627h9.8v29c8.2-18.4,24.8-31.2,45.2-30.6v10.8h-1c-23.4,0-44.2,18-44.2,51V729h-9.8V627z"/>
			<path d="M932.9,627h9.8v18.2c6.4-10.6,15.8-20.6,34-20.6c18,0,28.6,10.2,34.4,22c6.6-11.4,17.8-22,36.8-22
				c24.2,0,39.2,17,39.2,42.6V729h-9.8v-60.6c0-22.2-11.2-34.8-30.2-34.8c-17.2,0-32.2,13-32.2,36V729h-9.8v-61.2
				c0-21.4-11.4-34.2-29.8-34.2c-18.4,0-32.6,16-32.6,36.6V729h-9.8V627z"/>
		</g>
		<path d="M1129.2,592.4h3.5l11.2,17.1l11.2-17.1h3.4v28.7h-3.3v-23l-11.1,16.6h-0.5l-11.1-16.6v23h-3.3L1129.2,592.4L1129.2,592.4z
			 M1110,595.6h-9.4v-3.2h22.1v3.2h-9.4v25.6h-3.3L1110,595.6L1110,595.6z"/>
	</g>
</g>
</svg>
